<?xml version="1.0" standalone="no"?>
<!DOCTYPE svg PUBLIC "-//W3C//DTD SVG 20010904//EN"
 "http://www.w3.org/TR/2001/REC-SVG-20010904/DTD/svg10.dtd">
<svg version="1.0" xmlns="http://www.w3.org/2000/svg"
 width="832.000000pt" height="832.000000pt" viewBox="0 0 832.000000 832.000000"
 preserveAspectRatio="xMidYMid meet">
<metadata>
Created by potrace 1.14, written by Peter Selinger 2001-2017
</metadata>
<g transform="translate(0.000000,832.000000) scale(0.100000,-0.100000)"
fill="#000000" stroke="none">
<path d="M970 8305 c-295 -60 -529 -277 -622 -577 l-23 -73 -3 -3393 c-2
-3293 -2 -3396 17 -3485 69 -339 308 -614 628 -723 54 -18 127 -38 163 -43 44
-7 1007 -11 2958 -11 3198 0 2963 -5 3122 64 257 110 437 336 485 611 13 78
15 476 15 3485 0 3009 -2 3407 -15 3485 -48 275 -228 501 -485 611 -160 69 85
64 -3202 63 -2430 -1 -2985 -3 -3038 -14z m5487 -1001 c110 -45 197 -134 240
-244 17 -43 18 -189 21 -2855 1 -1980 -1 -2825 -9 -2862 -25 -126 -109 -232
-227 -290 l-57 -28 -1975 -5 -1975 -5 -98 -27 c-189 -52 -367 -148 -503 -271
-69 -63 -71 -66 -340 -436 l-199 -274 -3 3464 c-2 2548 0 3480 9 3524 6 32 23
84 39 115 29 58 114 146 168 174 90 47 -15 45 2497 43 l2360 -2 52 -21z"/>
</g>
</svg>
