<svg width="24" height="26" viewBox="0 0 24 26" fill="none" xmlns="http://www.w3.org/2000/svg">
<path fill-rule="evenodd" clip-rule="evenodd" d="M2.53034 0H20.554C21.9516 0 23.0843 1.136 23.0843 2.53665V23.4633C23.0843 24.864 21.9516 26 20.554 26H3.00137C1.34297 26 0 24.6528 0 22.9904V2.53665C0 1.136 1.1327 0 2.53034 0ZM18.7358 22.8285C19.4339 22.8285 20.0002 22.2612 20.0002 21.5602H19.9988V4.35961C19.9988 3.65858 19.4325 3.09128 18.7344 3.09128H4.42565C3.72753 3.09128 3.16118 3.65858 3.16118 4.35961V25.9986L4.36256 24.3502C4.93592 23.4324 6.13451 22.8355 7.09337 22.8285H7.1144H18.7358Z" fill="#34D3A3"/>
</svg>
